<?xml version="1.0" encoding="utf-8"?>
<!-- Generator: Adobe Illustrator 25.3.1, SVG Export Plug-In . SVG Version: 6.00 Build 0)  -->
<svg version="1.1" id="Слой_1" xmlns="http://www.w3.org/2000/svg" xmlns:xlink="http://www.w3.org/1999/xlink" x="0px" y="0px"
	 viewBox="0 0 1121 245" style="enable-background:new 0 0 1121 245;" xml:space="preserve">
<style type="text/css">
	.st0{fill:#87493A;}
	.st1{fill:#765445;}
	.st2{fill:#5C3F37;}
	.st3{fill:#FCE841;}
	.st4{fill:#FAD53B;}
	.st5{fill:#F6A52B;}
	.st6{fill:#F27D1C;}
	.st7{fill:#010000;}
	.st8{fill:#FAE740;}
	.st9{fill:#F8D43A;}
</style>
<path class="st0" d="M49.3,79.9h12.9v92.7H49.3V79.9z M56.9,160.6H82c6.6,0,11.4-1.3,14.4-3.8c3-2.5,4.5-6,4.5-10.6v-0.2
	c0-3.1-0.5-5.8-1.6-8.1c-1.1-2.3-2.8-4-5.1-5.2c-2.3-1.2-5.3-1.8-9-1.8H56.9v-11.7h28.3c4.8,0,8.4-1.1,10.9-3.4
	c2.4-2.3,3.7-5.6,3.7-10c0-4.6-1.4-8.1-4.1-10.4C93,93.1,88.9,92,83.4,92H56.9V79.9h28.9c6,0,11,1,15.1,3.1c4,2,7.1,4.9,9.1,8.7
	c2,3.7,3,8.2,3,13.4c0,3.2-0.6,6.2-1.9,9c-1.2,2.8-3.1,5.2-5.6,7.1c-2.5,2-5.7,3.3-9.4,4c3.7,0.6,7,1.9,9.7,4
	c2.7,2.1,4.8,4.7,6.3,7.9c1.4,3.1,2.2,6.5,2.2,10.2v0.2c0,5-1.1,9.4-3.3,13.3c-2.2,3.8-5.4,6.8-9.5,8.9c-4.1,2.1-8.9,3.1-14.4,3.1
	h-30V160.6z"/>
<path class="st0" d="M133.6,79.9h13v92.7h-13V79.9z M139.9,79.9h53.3v12.4h-53.3V79.9z M139.9,120.4h46.2v12.4h-46.2V120.4z
	 M139.9,160.3h53.3v12.4h-53.3V160.3z"/>
<path class="st0" d="M211.7,79.9h13v92.7h-13V79.9z M218,79.9h53.3v12.4H218V79.9z M218,120.4h46.2v12.4H218V120.4z M218,160.3h53.3
	v12.4H218V160.3z"/>
<path class="st0" d="M289.7,79.8h13v92.8h-13V79.8z M295.4,121.1h31.6c2.5,0,4.7-0.6,6.6-1.8c1.9-1.2,3.4-2.9,4.4-5.1
	c1-2.2,1.6-4.7,1.6-7.6c0-2.8-0.5-5.4-1.6-7.6c-1-2.2-2.5-3.9-4.4-5.1c-1.9-1.2-4.1-1.8-6.6-1.8h-31.6V79.8h31.1
	c5.4,0,10.1,1.1,14.1,3.3c4.1,2.2,7.2,5.3,9.4,9.4c2.2,4.1,3.3,8.8,3.3,14.1c0,5.3-1.1,10-3.4,14.1c-2.3,4.1-5.4,7.2-9.5,9.4
	c-4.1,2.2-8.8,3.3-14.1,3.3h-31.1V121.1z M320.7,130.6l12.9-2.9l23.7,45h-15.4L320.7,130.6z"/>
<path class="st0" d="M425.2,172.3c-4-0.8-7.7-2.1-11.2-3.8c-3.5-1.7-6.7-3.8-9.7-6.4l8.1-10c3.5,3.1,7.4,5.4,11.7,6.9
	c4.3,1.5,8.9,2.3,13.8,2.3c6.7,0,11.9-1.2,15.6-3.7c3.7-2.5,5.5-6,5.5-10.6V147c0-3.2-0.8-5.8-2.5-7.7c-1.7-1.9-3.8-3.3-6.5-4.2
	c-2.7-0.9-6.1-1.8-10.3-2.5c-0.1,0-0.3-0.1-0.4-0.1c-0.1,0-0.3,0-0.4-0.1l-1-0.2c-6.2-1.1-11.3-2.3-15.1-3.6
	c-3.9-1.3-7.2-3.8-10-7.3c-2.8-3.6-4.1-8.6-4.1-15.1v-0.1c0-5.7,1.3-10.6,3.9-14.7c2.6-4.1,6.3-7.2,11.3-9.3
	c4.9-2.1,10.9-3.2,17.8-3.2c3.3,0,6.6,0.4,9.8,1.1c3.2,0.7,6.4,1.8,9.5,3.2c3.1,1.4,6.2,3.2,9.2,5.4L462.7,99
	c-3.5-2.6-7-4.5-10.6-5.8c-3.5-1.3-7-1.9-10.6-1.9c-6.3,0-11.3,1.3-14.8,3.8c-3.5,2.5-5.3,6.1-5.3,10.7v0.1c0,3.2,0.9,5.7,2.7,7.5
	c1.8,1.8,4.1,3.2,6.8,4.1c2.7,0.9,6.5,1.8,11.3,2.7c0.2,0,0.3,0.1,0.5,0.1c0.1,0,0.3,0.1,0.5,0.1c0.2,0,0.4,0.1,0.7,0.1
	c0.3,0,0.5,0.1,0.7,0.1c5.6,1.1,10.3,2.5,14.1,4.1c3.8,1.6,6.9,4.1,9.4,7.6c2.5,3.5,3.8,8.3,3.8,14.4v0.1c0,5.7-1.3,10.5-4,14.5
	c-2.7,4-6.6,7.1-11.6,9.2c-5.1,2.1-11.2,3.2-18.4,3.2C433.4,173.6,429.2,173.2,425.2,172.3z"/>
<path class="st0" d="M489.1,79.9h13v92.7h-13V79.9z M495.5,79.9h53.3v12.4h-53.3V79.9z M495.5,120.4h46.2v12.4h-46.2V120.4z
	 M495.5,160.3h53.3v12.4h-53.3V160.3z"/>
<path class="st0" d="M592.5,79.9h11.1l34.2,92.7h-14L598,97.8l-25.7,74.8h-14L592.5,79.9z M574,139.9h48.8v12.4H574V139.9z"/>
<path class="st0" d="M651.8,79.8h13v92.8h-13V79.8z M657.5,121.1h31.6c2.5,0,4.7-0.6,6.6-1.8c1.9-1.2,3.4-2.9,4.4-5.1
	c1-2.2,1.6-4.7,1.6-7.6c0-2.8-0.5-5.4-1.6-7.6c-1-2.2-2.5-3.9-4.4-5.1c-1.9-1.2-4.1-1.8-6.6-1.8h-31.6V79.8h31.1
	c5.4,0,10.1,1.1,14.1,3.3c4.1,2.2,7.2,5.3,9.4,9.4c2.2,4.1,3.3,8.8,3.3,14.1c0,5.3-1.1,10-3.4,14.1c-2.3,4.1-5.4,7.2-9.5,9.4
	c-4.1,2.2-8.8,3.3-14.1,3.3h-31.1V121.1z M682.7,130.6l12.9-2.9l23.7,45H704L682.7,130.6z"/>
<path class="st0" d="M747.8,169.3c-4.9-2.8-8.6-6.9-11.3-12.1c-2.7-5.2-4-11.3-4-18.2v-25.5c0-6.9,1.3-12.9,4-18.2
	c2.7-5.2,6.5-9.3,11.3-12.2s10.5-4.3,16.9-4.3c5.3,0,10.2,1.1,14.7,3.4c4.5,2.3,8.2,5.5,11.2,9.7c3,4.2,5,9,6.1,14.5h-13.3
	c-0.8-2.9-2.2-5.5-4.1-7.8c-1.9-2.3-4.1-4-6.7-5.3c-2.6-1.2-5.2-1.9-7.9-1.9c-3.8,0-7.1,0.9-10,2.7c-2.8,1.8-5.1,4.4-6.6,7.7
	c-1.6,3.3-2.4,7.1-2.4,11.5V139c0,4.3,0.8,8.2,2.4,11.5c1.6,3.3,3.8,5.9,6.6,7.7c2.8,1.8,6.2,2.7,10,2.7c2.8,0,5.4-0.6,7.9-1.7
	c2.5-1.1,4.7-2.8,6.6-5.1c1.9-2.3,3.2-4.9,4.1-8h13.3c-1.1,5.5-3.1,10.3-6.1,14.5c-3,4.2-6.8,7.4-11.2,9.7
	c-4.5,2.3-9.3,3.4-14.6,3.4C758.4,173.6,752.7,172.2,747.8,169.3z"/>
<path class="st0" d="M814,79.9h13v92.7h-13V79.9z M822.1,120.8h51.5v12.4h-51.5V120.8z M866.6,79.9h13v92.7h-13V79.9z"/>
<g>
	<path d="M934.6,114.6c0-3.8,0.1-7.6,0-11.3c0-1.7,0.4-3.1,1.8-4.2c2-1.5,2.5-3.3,2.4-5.7c-0.2-7.7-0.1-15.4-0.1-23.1
		c0-3.2,1.4-4.6,4.6-4.6c5.1,0,10.2,0,15.3,0c3.2,0,4.6,1.4,4.6,4.6c0,7.7,0.1,15.4-0.1,23.1c-0.1,2.4,0.5,4.2,2.4,5.7
		c0.7,0.5,1.2,1.4,1.7,2c1.2-1.3,2.6-2.7,3.9-4.1c0.3-0.3,0.3-0.9,0.3-1.3c0-8.4,0-16.9,0-25.3c0-3.3,1.4-4.7,4.7-4.7
		c5.1,0,10.2,0,15.3,0c3,0,4.5,1.5,4.5,4.5c0,8.1,0,16.3,0,24.4c0,1.6,0.3,2.7,1.5,3.8c1,0.8,1.7,1.9,2.5,2.8c1.1-1.2,2.5-2.6,3.8-4
		c0.3-0.3,0.4-0.9,0.4-1.4c0-8.4,0-16.9,0-25.3c0-3.3,1.4-4.7,4.7-4.7c5.1,0,10.2,0,15.3,0c3,0,4.5,1.5,4.5,4.5c0,8.5,0,17,0,25.5
		c0,0.6,0.3,1.3,0.7,1.7c3.8,4,3.3,2.9,3.3,8.2c0,3,0,6,0,8.9c3.2,0.7,4.1,1.8,4.1,5.1c0,18.5,0,37,0,55.5c0,3.5-1.3,4.9-4.9,4.9
		c-32.2,0-64.3,0-96.5,0c-3.5,0-4.9-1.3-4.9-4.8c0-18.6,0-37.1,0-55.7C930.5,116.4,931.4,115.2,934.6,114.6z M1016.3,77.9
		c1.3,0,2.7,0,4,0c0-1.4,0-2.7,0-4c-1.4,0-2.7,0-4,0c-1.3,0-2.7,0-4,0c0,1.4,0,2.7,0,4C1013.7,77.9,1015,77.9,1016.3,77.9z
		 M983.6,77.9c1.3,0,2.7,0,4,0c0-1.4,0-2.7,0-4c-1.4,0-2.7,0-4,0c-1.3,0-2.7,0-4,0c0,1.4,0,2.7,0,4C981,77.9,982.3,77.9,983.6,77.9z
		 M950.9,73.9c-1.3,0-2.7,0-4,0c0,1.4,0,2.7,0,4c1.4,0,2.7,0,4,0c1.3,0,2.7,0,4,0c0-1.4,0-2.7,0-4C953.6,73.9,952.2,73.9,950.9,73.9
		z M1016.3,86.2c-1.3,0-2.7,0-4.1,0c0,3.8-0.1,7.4,0,11.1c0.1,1.9-0.4,3.6-2,4.7c-1.8,1.3-2.4,3.1-2.2,5.3c0.2,2.5,0,5,0,7.5
		c2.8,0,5.5,0,8.2,0c2.7,0,5.4,0,8.1,0c0-0.2,0.1-0.3,0.1-0.3c0-2.1-0.2-4.2,0.1-6.2c0.3-2.8-0.4-5-2.7-6.7c-1.1-0.8-1.4-2-1.4-3.4
		c0.1-2.3,0-4.7,0-7c0-1.6,0-3.2,0-4.8C1018.9,86.2,1017.6,86.2,1016.3,86.2z M983.6,86.2c-1.3,0-2.7,0-4.1,0c0,3.8-0.1,7.4,0,11.1
		c0.1,1.9-0.4,3.6-2,4.7c-1.8,1.3-2.4,3.1-2.2,5.3c0.2,2.5,0,5,0,7.5c2.8,0,5.5,0,8.2,0c2.7,0,5.4,0,8.1,0c0-0.2,0.1-0.3,0.1-0.3
		c0-2.1-0.2-4.2,0.1-6.2c0.3-2.8-0.4-5-2.7-6.7c-1.1-0.8-1.4-2-1.4-3.4c0.1-2.3,0-4.7,0-7c0-1.6,0-3.2,0-4.8
		C986.2,86.2,984.9,86.2,983.6,86.2z M950.9,86.2c-1.3,0-2.7,0-4.1,0c0,3.8-0.1,7.4,0,11.1c0.1,1.9-0.4,3.6-2,4.7
		c-1.8,1.3-2.4,3.1-2.2,5.3c0.2,2.5,0,5,0,7.5c2.8,0,5.5,0,8.2,0c2.7,0,5.4,0,8.2,0c0-2.3-0.2-4.4,0-6.6c0.3-2.8-0.4-5-2.7-6.7
		c-1.1-0.8-1.4-2-1.4-3.4c0.1-2.3,0-4.7,0-7c0-1.6,0-3.2,0-4.8C953.6,86.2,952.3,86.2,950.9,86.2z M983.6,122.9c-0.2,0-0.3,0-0.5,0
		c-14.5,0-28.9,0-43.4,0c-0.3,0-0.6,0.1-0.9,0.1c0,16.3,0,32.6,0,48.9c0.5,0,1,0,1.5,0c6.9,0,13.9,0,20.8,0c7.5,0,15.1,0,22.6,0
		c0.2,0,0.3,0,0.5,0c14.5,0,28.9,0,43.4,0c0.3,0,0.6-0.1,1-0.1c0-16.3,0-32.6,0-48.9c-0.5,0-1,0-1.5,0c-6.9,0-13.7,0-20.6,0
		C998.8,122.9,991.2,122.9,983.6,122.9z"/>
	<path class="st1" d="M983.6,171.9c-7.5,0-15.1,0-22.6,0c-6.9,0-13.9,0-20.8,0c-0.5,0-0.9,0-1.5,0c0-16.4,0-32.6,0-48.9
		c0.3,0,0.6-0.1,0.9-0.1c14.5,0,28.9,0,43.4,0c0.2,0,0.3,0,0.5,0c0,1.3,0,2.7,0,4c-2.8,0.1-5.6-0.1-8.3,0.3c-4.7,0.7-8.1,5-8.1,9.9
		c0,4.9,3.4,9.2,8.1,9.9c2.7,0.4,5.5,0.2,8.3,0.3C983.6,155.6,983.6,163.7,983.6,171.9z"/>
	<path class="st2" d="M983.6,171.9c0-8.1,0-16.3,0-24.4c2,0,4.1,0,6.1,0c5.7,0,10.2-4.5,10.2-10.2c0-5.8-4.4-10.2-10.2-10.3
		c-2,0-4.1,0-6.1,0c0-1.3,0-2.7,0-4c7.6,0,15.2,0,22.8,0c6.9,0,13.7,0,20.6,0c0.5,0,0.9,0,1.5,0c0,16.4,0,32.6,0,48.9
		c-0.3,0-0.6,0.1-1,0.1c-14.5,0-28.9,0-43.4,0C984,171.9,983.8,171.9,983.6,171.9z"/>
	<path class="st3" d="M950.9,114.7c-2.7,0-5.3,0-8.2,0c0-2.5,0.1-5,0-7.5c-0.2-2.2,0.4-3.9,2.2-5.3c1.6-1.1,2-2.8,2-4.7
		c-0.1-3.6,0-7.3,0-11.1c1.4,0,2.7,0,4.1,0C950.9,95.7,950.9,105.2,950.9,114.7z"/>
	<path class="st4" d="M950.9,114.7c0-9.5,0-19,0-28.5c1.3,0,2.6,0,4.1,0c0,1.6,0,3.2,0,4.8c0,2.3,0,4.7,0,7c0,1.4,0.3,2.6,1.4,3.4
		c2.4,1.7,3,3.9,2.7,6.7c-0.2,2.1,0,4.3,0,6.6C956.3,114.7,953.6,114.7,950.9,114.7z"/>
	<path class="st3" d="M983.6,114.7c-2.7,0-5.3,0-8.2,0c0-2.5,0.1-5,0-7.5c-0.2-2.2,0.4-3.9,2.2-5.3c1.6-1.1,2-2.8,2-4.7
		c-0.1-3.6,0-7.3,0-11.1c1.4,0,2.7,0,4.1,0C983.6,95.7,983.6,105.2,983.6,114.7z"/>
	<path class="st4" d="M983.6,114.7c0-9.5,0-19,0-28.5c1.3,0,2.6,0,4.1,0c0,1.6,0,3.2,0,4.8c0,2.3,0,4.7,0,7c0,1.4,0.3,2.6,1.4,3.4
		c2.4,1.7,3,3.9,2.7,6.7c-0.2,2.1,0,4.2-0.1,6.2c0,0.1,0,0.2-0.1,0.3C989,114.7,986.3,114.7,983.6,114.7z"/>
	<path class="st3" d="M1016.3,114.7c-2.7,0-5.3,0-8.2,0c0-2.5,0.1-5,0-7.5c-0.2-2.2,0.4-3.9,2.2-5.3c1.6-1.1,2-2.8,2-4.7
		c-0.1-3.6,0-7.3,0-11.1c1.4,0,2.7,0,4.1,0C1016.3,95.7,1016.3,105.2,1016.3,114.7z"/>
	<path class="st4" d="M1016.3,114.7c0-9.5,0-19,0-28.5c1.3,0,2.6,0,4.1,0c0,1.6,0,3.2,0,4.8c0,2.3,0,4.7,0,7c0,1.4,0.3,2.6,1.4,3.4
		c2.4,1.7,3,3.9,2.7,6.7c-0.2,2.1,0,4.2-0.1,6.2c0,0.1,0,0.2-0.1,0.3C1021.7,114.7,1019,114.7,1016.3,114.7z"/>
	<path class="st5" d="M950.9,77.9c-1.3,0-2.6,0-4,0c0-1.3,0-2.6,0-4c1.3,0,2.7,0,4,0C950.9,75.2,950.9,76.6,950.9,77.9z"/>
	<path class="st6" d="M950.9,77.9c0-1.3,0-2.7,0-4c1.3,0,2.6,0,4,0c0,1.3,0,2.6,0,4C953.6,77.9,952.3,77.9,950.9,77.9z"/>
	<path class="st5" d="M983.6,77.9c-1.3,0-2.6,0-4,0c0-1.3,0-2.6,0-4c1.3,0,2.7,0,4,0C983.6,75.2,983.6,76.6,983.6,77.9z"/>
	<path class="st6" d="M983.6,77.9c0-1.3,0-2.7,0-4c1.3,0,2.6,0,4,0c0,1.3,0,2.6,0,4C986.3,77.9,985,77.9,983.6,77.9z"/>
	<path class="st5" d="M1016.3,77.9c-1.3,0-2.6,0-4,0c0-1.3,0-2.6,0-4c1.3,0,2.7,0,4,0C1016.3,75.2,1016.3,76.6,1016.3,77.9z"/>
	<path class="st6" d="M1016.3,77.9c0-1.3,0-2.7,0-4c1.3,0,2.6,0,4,0c0,1.3,0,2.6,0,4C1019,77.9,1017.6,77.9,1016.3,77.9z"/>
	<path class="st7" d="M983.6,126.9c2,0,4.1,0,6.1,0c5.8,0,10.2,4.5,10.2,10.3c0,5.7-4.5,10.1-10.2,10.2c-2,0-4.1,0-6.1,0
		c-2.8-0.1-5.6,0.1-8.3-0.3c-4.7-0.7-8.1-5.1-8.1-9.9c0-4.9,3.4-9.2,8.1-9.9C978.1,126.9,980.9,127,983.6,126.9z M983.6,135.2
		c-2,0-4.1-0.1-6.1,0c-1.3,0-2,0.8-2,2c0,1.2,0.7,2.1,2,2.1c2,0,4.1,0,6.1,0c2,0,4.1,0.1,6.1,0c1.3,0,2.1-0.9,2-2.1
		c0-1.2-0.8-1.9-2-2C987.7,135.1,985.7,135.2,983.6,135.2z"/>
	<path class="st8" d="M983.6,139.2c-2,0-4.1,0.1-6.1,0c-1.3,0-2.1-0.9-2-2.1c0-1.2,0.8-1.9,2-2c2,0,4.1,0,6.1,0
		C983.6,136.5,983.6,137.9,983.6,139.2z"/>
	<path class="st9" d="M983.6,139.2c0-1.3,0-2.7,0-4c2,0,4.1-0.1,6.1,0c1.3,0,2,0.8,2,2c0,1.2-0.7,2.1-2,2.1
		C987.7,139.2,985.7,139.2,983.6,139.2z"/>
</g>
</svg>
